<svg xmlns:dc="http://purl.org/dc/elements/1.1/" xmlns:cc="http://creativecommons.org/ns#" xmlns:rdf="http://www.w3.org/1999/02/22-rdf-syntax-ns#" xmlns:svg="http://www.w3.org/2000/svg" xmlns="http://www.w3.org/2000/svg" xmlns:sodipodi="http://sodipodi.sourceforge.net/DTD/sodipodi-0.dtd" xmlns:inkscape="http://www.inkscape.org/namespaces/inkscape" version="1.1" width="380" height="560">

<g inkscape:groupmode="layer" id="layer2" inkscape:label="cards" style="display:inline" transform="translate(9.1856127,0)">
  <g transform="translate(0,-500)" id="g3042">
    <rect rx="29.944447" ry="29.944447" y="512.86218" x="0.5" height="539" width="359" id="rect6472-03" style="fill:#ffffff;stroke:#000000;stroke-width:2.5;stroke-miterlimit:4;stroke-dasharray:none"/>
    <path style="fill:#ff5555;fill-opacity:1;stroke:none" id="rect3163-5-1-4-3-4-0-8" d="m 30,542.36208 c -5.54,0 -10,4.46 -10,10 l 0,5 5,0 0,-5 c 0,-2.77 2.23,-5 5,-5 2.77,0 5,2.23 5,5 l 0,5 c 0,2.77 -2.23,5 -5,5 l -5,0 0,5 5,0 c 2.77,0 5,2.23 5,5 l 0,10 c 0,2.77 -2.23,5 -5,5 -2.77,0 -5,-2.23 -5,-5 l 0,-5 -5,0 0,5 c 0,5.54 4.46,10 10,10 5.54,0 10,-4.46 10,-10 l 0,-10 c 0,-3.0036 -1.32295,-5.67 -3.40625,-7.5 2.0833,-1.83 3.40625,-4.4964 3.40625,-7.5 l 0,-5 c 0,-5.54 -4.46,-10 -10,-10 z" inkscape:connector-curvature="0"/>
    <path style="fill:#ff5555;fill-opacity:1;stroke:none" id="rect3163-5-1-4-3-4-0-4-2" d="m 330,1022.3622 c 5.54,0 10,-4.46 10,-10 l 0,-5 -5,0 0,5 c 0,2.77 -2.23,5 -5,5 -2.77,0 -5,-2.23 -5,-5 l 0,-5 c 0,-2.77 2.23,-5 5,-5 l 5,0 0,-5.00002 -5,0 c -2.77,0 -5,-2.23 -5,-5.00002 l 0,-10 c 0,-2.77 2.23,-5 5,-5 2.77,0 5,2.23 5,5 l 0,5 5,0 0,-5 c 0,-5.54 -4.46,-10 -10,-10 -5.54,0 -10,4.46 -10,10 l 0,10 c 0,3.00362 1.32295,5.67002 3.40625,7.50004 -2.0833,1.83 -3.40625,4.4964 -3.40625,7.5 l 0,5 c 0,5.54 4.46,10 10,10 z" inkscape:connector-curvature="0"/>
    <path sodipodi:nodetypes="czczczczc" inkscape:connector-curvature="0" id="path3204-24-1-52" d="m 30,602.36218 c 0,0 3,7.5 6.5,12.5 3.5,5 8.5,10 8.5,10 0,0 -5,5 -8.5,10 -3.5,5 -6.5,12.5 -6.5,12.5 0,0 -3,-7.5 -6.5,-12.5 -3.5,-5 -8.5,-10 -8.5,-10 0,0 5,-5 8.5,-10 3.5,-5 6.5,-12.5 6.5,-12.5" style="fill:#ff5555;stroke:none"/>
    <path sodipodi:nodetypes="czczczczc" inkscape:connector-curvature="0" id="path3204-24-1-1-0" d="m 330,917.36218 c 0,0 3,7.5 6.5,12.5 3.5,5 8.5,10 8.5,10 0,0 -5,5 -8.5,10 -3.5,5 -6.5,12.5 -6.5,12.5 0,0 -3,-7.5 -6.5,-12.5 -3.5,-5 -8.5,-10 -8.5,-10 0,0 5,-5 8.5,-10 3.5,-5 6.5,-12.5 6.5,-12.5" style="fill:#ff5555;stroke:none"/>
    <path sodipodi:nodetypes="czczczczc" inkscape:connector-curvature="0" id="path3204-24-4-3" d="m 180,557.36218 c 0,0 6,15 13,25 7,10 17,20 17,20 0,0 -10,10 -17,20 -7,10 -13,25 -13,25 0,0 -6,-15 -13,-25 -7,-10 -17,-20 -17,-20 0,0 10,-10 17,-20 7,-10 13,-25 13,-25" style="fill:#ff5555;stroke:none"/>
    <path sodipodi:nodetypes="czczczczc" inkscape:connector-curvature="0" id="path3204-24-72" d="m 180,737.36218 c 0,0 6,15 13,25 7,10 17,20 17,20 0,0 -10,10 -17,20 -7,10 -13,25 -13,25 0,0 -6,-15 -13,-25 -7,-10 -17,-20 -17,-20 0,0 10,-10 17,-20 7,-10 13,-25 13,-25" style="fill:#ff5555;stroke:none"/>
    <path sodipodi:nodetypes="czczczczc" inkscape:connector-curvature="0" id="path3204-24-0-97" d="m 180,917.36218 c 0,0 6,15 13,25 7,10 17,20 17,20 0,0 -10,10 -17,20 -7,10 -13,25.00002 -13,25.00002 0,0 -6,-15.00002 -13,-25.00002 -7,-10 -17,-20 -17,-20 0,0 10,-10 17,-20 7,-10 13,-25 13,-25" style="fill:#ff5555;stroke:none"/>
  </g>
</g>
</svg>
