<svg xmlns:dc="http://purl.org/dc/elements/1.1/" xmlns:cc="http://creativecommons.org/ns#" xmlns:rdf="http://www.w3.org/1999/02/22-rdf-syntax-ns#" xmlns:svg="http://www.w3.org/2000/svg" xmlns="http://www.w3.org/2000/svg" xmlns:sodipodi="http://sodipodi.sourceforge.net/DTD/sodipodi-0.dtd" xmlns:inkscape="http://www.inkscape.org/namespaces/inkscape" version="1.1" width="380" height="560">

<g inkscape:groupmode="layer" id="layer2" inkscape:label="cards" style="display:inline" transform="translate(9.1856127,0)">
  <g transform="translate(0,-500)" id="g3092">
    <rect rx="29.944447" ry="29.944447" y="512.86218" x="0.5" height="539" width="359" id="rect6472-39" style="fill:#ffffff;stroke:#000000;stroke-width:2.5;stroke-miterlimit:4;stroke-dasharray:none"/>
    <path style="fill:#ff5555;fill-opacity:1;stroke:none" id="rect3980-2-1-93-8" d="m 20,542.36208 0,5 0,5 5,0 0,-5 10,0 -10,45 5,0 10,-45 0,-5 -20,0 z" inkscape:connector-curvature="0"/>
    <path style="fill:#ff5555;fill-opacity:1;stroke:none" id="rect3980-2-1-93-0-80" d="m 340,1022.3622 0,-5 0,-5 -5,0 0,5 -10,0 10,-45.00004 -5,0 -10,45.00004 0,5 20,0 z" inkscape:connector-curvature="0"/>
    <path sodipodi:nodetypes="czczczczc" inkscape:connector-curvature="0" id="path3204-24-1-8" d="m 30,602.36218 c 0,0 3,7.5 6.5,12.5 3.5,5 8.5,10 8.5,10 0,0 -5,5 -8.5,10 -3.5,5 -6.5,12.5 -6.5,12.5 0,0 -3,-7.5 -6.5,-12.5 -3.5,-5 -8.5,-10 -8.5,-10 0,0 5,-5 8.5,-10 3.5,-5 6.5,-12.5 6.5,-12.5" style="fill:#ff5555;stroke:none"/>
    <path sodipodi:nodetypes="czczczczc" inkscape:connector-curvature="0" id="path3204-24-1-1-7" d="m 330,917.36218 c 0,0 3,7.5 6.5,12.5 3.5,5 8.5,10 8.5,10 0,0 -5,5 -8.5,10 -3.5,5 -6.5,12.5 -6.5,12.5 0,0 -3,-7.5 -6.5,-12.5 -3.5,-5 -8.5,-10 -8.5,-10 0,0 5,-5 8.5,-10 3.5,-5 6.5,-12.5 6.5,-12.5" style="fill:#ff5555;stroke:none"/>
    <path sodipodi:nodetypes="czczczczc" inkscape:connector-curvature="0" id="path3204-24-9-7" d="m 90,557.36218 c 0,0 6,15 13,25 7,10 17,20 17,20 0,0 -10,10 -17,20 -7,10 -13,25 -13,25 0,0 -6,-15 -13,-25 -7,-10 -17,-20 -17,-20 0,0 10,-10 17,-20 7,-10 13,-25 13,-25" style="fill:#ff5555;stroke:none"/>
    <path sodipodi:nodetypes="czczczczc" inkscape:connector-curvature="0" id="path3204-24-4-83" d="m 270,557.36218 c 0,0 6,15 13,25 7,10 17,20 17,20 0,0 -10,10 -17,20 -7,10 -13,25 -13,25 0,0 -6,-15 -13,-25 -7,-10 -17,-20 -17,-20 0,0 10,-10 17,-20 7,-10 13,-25 13,-25" style="fill:#ff5555;stroke:none"/>
    <path sodipodi:nodetypes="czczczczc" inkscape:connector-curvature="0" id="path3204-24-8-8" d="m 180,647.36218 c 0,0 6,15 13,25 7,10 17,20 17,20 0,0 -10,10 -17,20 -7,10 -13,25 -13,25 0,0 -6,-15 -13,-25 -7,-10 -17,-20 -17,-20 0,0 10,-10 17,-20 7,-10 13,-25 13,-25" style="fill:#ff5555;stroke:none"/>
    <path sodipodi:nodetypes="czczczczc" inkscape:connector-curvature="0" id="path3204-24-37" d="m 90,737.36218 c 0,0 6,15 13,25 7,10 17,20 17,20 0,0 -10,10 -17,20 -7,10 -13,25 -13,25 0,0 -6,-15 -13,-25 -7,-10 -17,-20 -17,-20 0,0 10,-10 17,-20 7,-10 13,-25 13,-25" style="fill:#ff5555;stroke:none"/>
    <path sodipodi:nodetypes="czczczczc" inkscape:connector-curvature="0" id="path3204-24-82" d="m 270,737.36218 c 0,0 6,15 13,25 7,10 17,20 17,20 0,0 -10,10 -17,20 -7,10 -13,25 -13,25 0,0 -6,-15 -13,-25 -7,-10 -17,-20 -17,-20 0,0 10,-10 17,-20 7,-10 13,-25 13,-25" style="fill:#ff5555;stroke:none"/>
    <path sodipodi:nodetypes="czczczczc" inkscape:connector-curvature="0" id="path3204-24-45-1" d="m 90,917.36218 c 0,0 6,15 13,25 7,10 17,20 17,20 0,0 -10,10 -17,20 -7,10 -13,25.00002 -13,25.00002 0,0 -6,-15.00002 -13,-25.00002 -7,-10 -17,-20 -17,-20 0,0 10,-10 17,-20 7,-10 13,-25 13,-25" style="fill:#ff5555;stroke:none"/>
    <path sodipodi:nodetypes="czczczczc" inkscape:connector-curvature="0" id="path3204-24-5" d="m 270,917.36218 c 0,0 6,15 13,25 7,10 17,20 17,20 0,0 -10,10 -17,20 -7,10 -13,25.00002 -13,25.00002 0,0 -6,-15.00002 -13,-25.00002 -7,-10 -17,-20 -17,-20 0,0 10,-10 17,-20 7,-10 13,-25 13,-25" style="fill:#ff5555;stroke:none"/>
  </g>
</g>
</svg>
